<mxfile host="app.diagrams.net" modified="2023-04-24T11:44:05.398Z" agent="Mozilla/5.0 (Windows NT 10.0; Win64; x64) AppleWebKit/537.36 (KHTML, like Gecko) Chrome/112.0.0.0 Safari/537.36" etag="HwETVLOvKHdyuLC9rgHI" version="21.1.8" type="device" pages="5">
  <diagram name="Страница 1" id="tj0hZk0AjQt9WpsrNiwb">
    <mxGraphModel dx="1434" dy="1933" grid="1" gridSize="10" guides="1" tooltips="1" connect="1" arrows="1" fold="1" page="1" pageScale="1" pageWidth="827" pageHeight="1169" math="0" shadow="0">
      <root>
        <mxCell id="0" />
        <mxCell id="1" parent="0" />
        <mxCell id="4qu8erdwvBuGcGntGuA2-5" style="edgeStyle=orthogonalEdgeStyle;rounded=0;orthogonalLoop=1;jettySize=auto;html=1;" parent="1" source="4qu8erdwvBuGcGntGuA2-2" target="4qu8erdwvBuGcGntGuA2-3" edge="1">
          <mxGeometry relative="1" as="geometry" />
        </mxCell>
        <mxCell id="4qu8erdwvBuGcGntGuA2-2" value="Start" style="html=1;dashed=0;whiteSpace=wrap;shape=mxgraph.dfd.start" parent="1" vertex="1">
          <mxGeometry x="60" y="105" width="80" height="30" as="geometry" />
        </mxCell>
        <mxCell id="4qu8erdwvBuGcGntGuA2-6" value="id" style="edgeStyle=orthogonalEdgeStyle;rounded=0;orthogonalLoop=1;jettySize=auto;html=1;" parent="1" source="4qu8erdwvBuGcGntGuA2-3" edge="1">
          <mxGeometry relative="1" as="geometry">
            <mxPoint x="370" y="120" as="targetPoint" />
          </mxGeometry>
        </mxCell>
        <mxCell id="4qu8erdwvBuGcGntGuA2-3" value="Клиент" style="html=1;dashed=0;whiteSpace=wrap;shape=mxgraph.dfd.externalEntity" parent="1" vertex="1">
          <mxGeometry x="200" y="70" width="100" height="100" as="geometry" />
        </mxCell>
        <mxCell id="4qu8erdwvBuGcGntGuA2-4" value="Id" style="autosize=1;part=1;resizable=0;strokeColor=inherit;fillColor=inherit;gradientColor=inherit;" parent="4qu8erdwvBuGcGntGuA2-3" vertex="1">
          <mxGeometry width="20" height="20" relative="1" as="geometry">
            <mxPoint x="15" y="15" as="offset" />
          </mxGeometry>
        </mxCell>
        <mxCell id="4qu8erdwvBuGcGntGuA2-12" style="edgeStyle=orthogonalEdgeStyle;rounded=0;orthogonalLoop=1;jettySize=auto;html=1;entryX=0;entryY=0.5;entryDx=0;entryDy=0;" parent="1" source="4qu8erdwvBuGcGntGuA2-7" target="4qu8erdwvBuGcGntGuA2-11" edge="1">
          <mxGeometry relative="1" as="geometry" />
        </mxCell>
        <mxCell id="4qu8erdwvBuGcGntGuA2-14" value="ID клиента" style="edgeLabel;html=1;align=center;verticalAlign=middle;resizable=0;points=[];" parent="4qu8erdwvBuGcGntGuA2-12" vertex="1" connectable="0">
          <mxGeometry x="-0.168" relative="1" as="geometry">
            <mxPoint x="12" y="-15" as="offset" />
          </mxGeometry>
        </mxCell>
        <mxCell id="4qu8erdwvBuGcGntGuA2-7" value="Инициализация З/С" style="html=1;dashed=0;whiteSpace=wrap;" parent="1" vertex="1">
          <mxGeometry x="370" y="95" width="100" height="50" as="geometry" />
        </mxCell>
        <mxCell id="4qu8erdwvBuGcGntGuA2-16" style="edgeStyle=orthogonalEdgeStyle;rounded=0;orthogonalLoop=1;jettySize=auto;html=1;" parent="1" source="4qu8erdwvBuGcGntGuA2-8" target="4qu8erdwvBuGcGntGuA2-11" edge="1">
          <mxGeometry relative="1" as="geometry">
            <Array as="points">
              <mxPoint x="640" y="180" />
              <mxPoint x="640" y="180" />
            </Array>
          </mxGeometry>
        </mxCell>
        <mxCell id="4qu8erdwvBuGcGntGuA2-17" value="Наличие долга" style="edgeLabel;html=1;align=center;verticalAlign=middle;resizable=0;points=[];" parent="4qu8erdwvBuGcGntGuA2-16" vertex="1" connectable="0">
          <mxGeometry x="-0.1962" relative="1" as="geometry">
            <mxPoint x="40" y="-5" as="offset" />
          </mxGeometry>
        </mxCell>
        <mxCell id="4qu8erdwvBuGcGntGuA2-31" style="edgeStyle=orthogonalEdgeStyle;rounded=0;orthogonalLoop=1;jettySize=auto;html=1;entryX=0.5;entryY=1;entryDx=0;entryDy=0;" parent="1" source="4qu8erdwvBuGcGntGuA2-8" target="4qu8erdwvBuGcGntGuA2-28" edge="1">
          <mxGeometry relative="1" as="geometry">
            <Array as="points">
              <mxPoint x="1180" y="290" />
            </Array>
          </mxGeometry>
        </mxCell>
        <mxCell id="4qu8erdwvBuGcGntGuA2-32" value="Команда начала зарядки" style="edgeLabel;html=1;align=center;verticalAlign=middle;resizable=0;points=[];" parent="4qu8erdwvBuGcGntGuA2-31" vertex="1" connectable="0">
          <mxGeometry x="-0.1015" y="1" relative="1" as="geometry">
            <mxPoint x="-22" y="11" as="offset" />
          </mxGeometry>
        </mxCell>
        <mxCell id="4qu8erdwvBuGcGntGuA2-8" value="ТАЧ" style="html=1;dashed=0;whiteSpace=wrap;shape=mxgraph.dfd.externalEntity" parent="1" vertex="1">
          <mxGeometry x="570" y="220" width="100" height="100" as="geometry" />
        </mxCell>
        <mxCell id="4qu8erdwvBuGcGntGuA2-9" value="Id" style="autosize=1;part=1;resizable=0;strokeColor=inherit;fillColor=inherit;gradientColor=inherit;" parent="4qu8erdwvBuGcGntGuA2-8" vertex="1">
          <mxGeometry width="20" height="20" relative="1" as="geometry">
            <mxPoint x="15" y="15" as="offset" />
          </mxGeometry>
        </mxCell>
        <mxCell id="4qu8erdwvBuGcGntGuA2-13" style="edgeStyle=orthogonalEdgeStyle;rounded=0;orthogonalLoop=1;jettySize=auto;html=1;entryX=0.316;entryY=-0.004;entryDx=0;entryDy=0;entryPerimeter=0;" parent="1" source="4qu8erdwvBuGcGntGuA2-11" target="4qu8erdwvBuGcGntGuA2-8" edge="1">
          <mxGeometry relative="1" as="geometry">
            <Array as="points">
              <mxPoint x="602" y="182" />
            </Array>
          </mxGeometry>
        </mxCell>
        <mxCell id="4qu8erdwvBuGcGntGuA2-19" value="Наличие долга" style="edgeStyle=orthogonalEdgeStyle;rounded=0;orthogonalLoop=1;jettySize=auto;html=1;entryX=0;entryY=0.5;entryDx=0;entryDy=0;" parent="1" source="4qu8erdwvBuGcGntGuA2-11" target="4qu8erdwvBuGcGntGuA2-18" edge="1">
          <mxGeometry y="10" relative="1" as="geometry">
            <mxPoint as="offset" />
          </mxGeometry>
        </mxCell>
        <mxCell id="4qu8erdwvBuGcGntGuA2-11" value="Проверка долга" style="html=1;dashed=0;whiteSpace=wrap;" parent="1" vertex="1">
          <mxGeometry x="570" y="95" width="100" height="50" as="geometry" />
        </mxCell>
        <mxCell id="4qu8erdwvBuGcGntGuA2-15" value="ID клиента" style="text;html=1;align=center;verticalAlign=middle;resizable=0;points=[];autosize=1;strokeColor=none;fillColor=none;" parent="1" vertex="1">
          <mxGeometry x="530" y="170" width="80" height="30" as="geometry" />
        </mxCell>
        <mxCell id="4qu8erdwvBuGcGntGuA2-22" style="edgeStyle=orthogonalEdgeStyle;rounded=0;orthogonalLoop=1;jettySize=auto;html=1;" parent="1" source="4qu8erdwvBuGcGntGuA2-18" target="4qu8erdwvBuGcGntGuA2-21" edge="1">
          <mxGeometry relative="1" as="geometry">
            <Array as="points">
              <mxPoint x="785" y="40" />
            </Array>
          </mxGeometry>
        </mxCell>
        <mxCell id="4qu8erdwvBuGcGntGuA2-23" value="Да" style="edgeLabel;html=1;align=center;verticalAlign=middle;resizable=0;points=[];" parent="4qu8erdwvBuGcGntGuA2-22" vertex="1" connectable="0">
          <mxGeometry x="0.1333" y="1" relative="1" as="geometry">
            <mxPoint x="14" y="-9" as="offset" />
          </mxGeometry>
        </mxCell>
        <mxCell id="4qu8erdwvBuGcGntGuA2-41" style="edgeStyle=orthogonalEdgeStyle;rounded=0;orthogonalLoop=1;jettySize=auto;html=1;entryX=0;entryY=0;entryDx=100;entryDy=32.5;entryPerimeter=0;" parent="1" source="4qu8erdwvBuGcGntGuA2-18" target="4qu8erdwvBuGcGntGuA2-8" edge="1">
          <mxGeometry relative="1" as="geometry">
            <Array as="points">
              <mxPoint x="785" y="253" />
            </Array>
          </mxGeometry>
        </mxCell>
        <mxCell id="4qu8erdwvBuGcGntGuA2-18" value="Есть ли долг?" style="shape=rhombus;html=1;dashed=0;whiteSpace=wrap;perimeter=rhombusPerimeter;" parent="1" vertex="1">
          <mxGeometry x="750" y="90" width="70" height="60" as="geometry" />
        </mxCell>
        <mxCell id="4qu8erdwvBuGcGntGuA2-25" style="edgeStyle=orthogonalEdgeStyle;rounded=0;orthogonalLoop=1;jettySize=auto;html=1;entryX=0;entryY=0.5;entryDx=0;entryDy=0;" parent="1" source="4qu8erdwvBuGcGntGuA2-21" target="4qu8erdwvBuGcGntGuA2-24" edge="1">
          <mxGeometry relative="1" as="geometry" />
        </mxCell>
        <mxCell id="4qu8erdwvBuGcGntGuA2-26" value="Да" style="edgeLabel;html=1;align=center;verticalAlign=middle;resizable=0;points=[];" parent="4qu8erdwvBuGcGntGuA2-25" vertex="1" connectable="0">
          <mxGeometry x="-0.0784" y="-2" relative="1" as="geometry">
            <mxPoint x="16" y="-17" as="offset" />
          </mxGeometry>
        </mxCell>
        <mxCell id="4qu8erdwvBuGcGntGuA2-27" value="Нет (выход из зарядки)" style="edgeStyle=orthogonalEdgeStyle;rounded=0;orthogonalLoop=1;jettySize=auto;html=1;" parent="1" source="4qu8erdwvBuGcGntGuA2-21" edge="1">
          <mxGeometry relative="1" as="geometry">
            <mxPoint x="930" y="-90" as="targetPoint" />
            <mxPoint as="offset" />
          </mxGeometry>
        </mxCell>
        <mxCell id="4qu8erdwvBuGcGntGuA2-21" value="Солгасен ли клиент списать долг?" style="shape=rhombus;html=1;dashed=0;whiteSpace=wrap;perimeter=rhombusPerimeter;" parent="1" vertex="1">
          <mxGeometry x="860" y="-15" width="110" height="110" as="geometry" />
        </mxCell>
        <mxCell id="4qu8erdwvBuGcGntGuA2-29" style="edgeStyle=orthogonalEdgeStyle;rounded=0;orthogonalLoop=1;jettySize=auto;html=1;entryX=0;entryY=0;entryDx=100;entryDy=55;entryPerimeter=0;" parent="1" source="4qu8erdwvBuGcGntGuA2-24" target="4qu8erdwvBuGcGntGuA2-8" edge="1">
          <mxGeometry relative="1" as="geometry">
            <Array as="points">
              <mxPoint x="990" y="275" />
            </Array>
          </mxGeometry>
        </mxCell>
        <mxCell id="4qu8erdwvBuGcGntGuA2-30" value="Успешность списания" style="edgeLabel;html=1;align=center;verticalAlign=middle;resizable=0;points=[];" parent="4qu8erdwvBuGcGntGuA2-29" vertex="1" connectable="0">
          <mxGeometry x="-0.0831" y="-2" relative="1" as="geometry">
            <mxPoint x="-84" y="-13" as="offset" />
          </mxGeometry>
        </mxCell>
        <mxCell id="4qu8erdwvBuGcGntGuA2-43" style="edgeStyle=orthogonalEdgeStyle;rounded=0;orthogonalLoop=1;jettySize=auto;html=1;entryX=0.25;entryY=1;entryDx=0;entryDy=0;" parent="1" source="4qu8erdwvBuGcGntGuA2-24" target="4qu8erdwvBuGcGntGuA2-37" edge="1">
          <mxGeometry relative="1" as="geometry">
            <Array as="points">
              <mxPoint x="1030" y="360" />
              <mxPoint x="1365" y="360" />
            </Array>
          </mxGeometry>
        </mxCell>
        <mxCell id="4qu8erdwvBuGcGntGuA2-44" value="Сумма долга" style="edgeLabel;html=1;align=center;verticalAlign=middle;resizable=0;points=[];" parent="4qu8erdwvBuGcGntGuA2-43" vertex="1" connectable="0">
          <mxGeometry x="0.2896" y="-2" relative="1" as="geometry">
            <mxPoint as="offset" />
          </mxGeometry>
        </mxCell>
        <mxCell id="4qu8erdwvBuGcGntGuA2-24" value="Списание долга" style="html=1;dashed=0;whiteSpace=wrap;" parent="1" vertex="1">
          <mxGeometry x="970" y="100" width="100" height="50" as="geometry" />
        </mxCell>
        <mxCell id="4qu8erdwvBuGcGntGuA2-36" value="Затраченные кВт*ч" style="edgeStyle=orthogonalEdgeStyle;rounded=0;orthogonalLoop=1;jettySize=auto;html=1;entryX=0;entryY=0.5;entryDx=0;entryDy=0;" parent="1" source="4qu8erdwvBuGcGntGuA2-28" target="4qu8erdwvBuGcGntGuA2-35" edge="1">
          <mxGeometry y="15" relative="1" as="geometry">
            <mxPoint as="offset" />
          </mxGeometry>
        </mxCell>
        <mxCell id="4qu8erdwvBuGcGntGuA2-28" value="Зарядка" style="html=1;dashed=0;whiteSpace=wrap;" parent="1" vertex="1">
          <mxGeometry x="1130" y="100" width="100" height="50" as="geometry" />
        </mxCell>
        <mxCell id="4qu8erdwvBuGcGntGuA2-35" value="Оплата" style="html=1;dashed=0;whiteSpace=wrap;" parent="1" vertex="1">
          <mxGeometry x="1340" y="100" width="100" height="50" as="geometry" />
        </mxCell>
        <mxCell id="4qu8erdwvBuGcGntGuA2-40" value="Ответ банка" style="edgeStyle=orthogonalEdgeStyle;rounded=0;orthogonalLoop=1;jettySize=auto;html=1;entryX=0.25;entryY=1;entryDx=0;entryDy=0;" parent="1" source="4qu8erdwvBuGcGntGuA2-37" target="iRILhYVC1YG7_bELRCJA-3" edge="1">
          <mxGeometry x="-0.6364" y="40" relative="1" as="geometry">
            <Array as="points">
              <mxPoint x="1515" y="240" />
            </Array>
            <mxPoint as="offset" />
          </mxGeometry>
        </mxCell>
        <mxCell id="4qu8erdwvBuGcGntGuA2-45" style="edgeStyle=orthogonalEdgeStyle;rounded=0;orthogonalLoop=1;jettySize=auto;html=1;" parent="1" source="4qu8erdwvBuGcGntGuA2-37" edge="1">
          <mxGeometry relative="1" as="geometry">
            <mxPoint x="1020" y="150" as="targetPoint" />
            <Array as="points">
              <mxPoint x="1390" y="380" />
              <mxPoint x="1020" y="380" />
              <mxPoint x="1020" y="150" />
            </Array>
          </mxGeometry>
        </mxCell>
        <mxCell id="4qu8erdwvBuGcGntGuA2-46" value="Успех операции" style="edgeLabel;html=1;align=center;verticalAlign=middle;resizable=0;points=[];" parent="4qu8erdwvBuGcGntGuA2-45" vertex="1" connectable="0">
          <mxGeometry x="0.07" y="3" relative="1" as="geometry">
            <mxPoint x="105" y="7" as="offset" />
          </mxGeometry>
        </mxCell>
        <mxCell id="4qu8erdwvBuGcGntGuA2-37" value="Банк" style="swimlane;fontStyle=0;childLayout=stackLayout;horizontal=1;startSize=20;fillColor=#ffffff;horizontalStack=0;resizeParent=1;resizeParentMax=0;resizeLast=0;collapsible=0;marginBottom=0;swimlaneFillColor=#ffffff;" parent="1" vertex="1">
          <mxGeometry x="1340" y="230" width="100" height="50" as="geometry" />
        </mxCell>
        <mxCell id="4qu8erdwvBuGcGntGuA2-38" value="" style="endArrow=classic;html=1;rounded=0;exitX=0.25;exitY=1;exitDx=0;exitDy=0;entryX=0.25;entryY=0;entryDx=0;entryDy=0;" parent="1" source="4qu8erdwvBuGcGntGuA2-35" target="4qu8erdwvBuGcGntGuA2-37" edge="1">
          <mxGeometry width="50" height="50" relative="1" as="geometry">
            <mxPoint x="1180" y="180" as="sourcePoint" />
            <mxPoint x="1230" y="130" as="targetPoint" />
          </mxGeometry>
        </mxCell>
        <mxCell id="4qu8erdwvBuGcGntGuA2-39" value="Сумма списания" style="edgeLabel;html=1;align=center;verticalAlign=middle;resizable=0;points=[];" parent="4qu8erdwvBuGcGntGuA2-38" vertex="1" connectable="0">
          <mxGeometry x="-0.425" y="3" relative="1" as="geometry">
            <mxPoint x="-48" y="12" as="offset" />
          </mxGeometry>
        </mxCell>
        <mxCell id="4qu8erdwvBuGcGntGuA2-47" value="Готовность работы" style="text;html=1;align=center;verticalAlign=middle;resizable=0;points=[];autosize=1;strokeColor=none;fillColor=none;" parent="1" vertex="1">
          <mxGeometry x="665" y="220" width="130" height="30" as="geometry" />
        </mxCell>
        <mxCell id="4qu8erdwvBuGcGntGuA2-53" value="Да" style="edgeStyle=orthogonalEdgeStyle;rounded=0;orthogonalLoop=1;jettySize=auto;html=1;" parent="1" source="4qu8erdwvBuGcGntGuA2-50" target="4qu8erdwvBuGcGntGuA2-54" edge="1">
          <mxGeometry relative="1" as="geometry">
            <mxPoint x="1710" y="230" as="targetPoint" />
            <Array as="points" />
          </mxGeometry>
        </mxCell>
        <mxCell id="4qu8erdwvBuGcGntGuA2-57" value="Нет - проверить долг без зарядки" style="edgeStyle=orthogonalEdgeStyle;rounded=0;orthogonalLoop=1;jettySize=auto;html=1;entryX=0.75;entryY=0;entryDx=0;entryDy=0;" parent="1" source="4qu8erdwvBuGcGntGuA2-50" target="4qu8erdwvBuGcGntGuA2-11" edge="1">
          <mxGeometry x="-0.0079" y="10" relative="1" as="geometry">
            <Array as="points">
              <mxPoint x="1820" y="-100" />
              <mxPoint x="645" y="-100" />
            </Array>
            <mxPoint as="offset" />
          </mxGeometry>
        </mxCell>
        <mxCell id="4qu8erdwvBuGcGntGuA2-50" value="Сессия завершена успешно?" style="shape=rhombus;html=1;dashed=0;whiteSpace=wrap;perimeter=rhombusPerimeter;" parent="1" vertex="1">
          <mxGeometry x="1770" y="80" width="100" height="90" as="geometry" />
        </mxCell>
        <mxCell id="4qu8erdwvBuGcGntGuA2-56" style="edgeStyle=orthogonalEdgeStyle;rounded=0;orthogonalLoop=1;jettySize=auto;html=1;entryX=0.5;entryY=0;entryDx=0;entryDy=0;" parent="1" source="4qu8erdwvBuGcGntGuA2-54" target="4qu8erdwvBuGcGntGuA2-11" edge="1">
          <mxGeometry relative="1" as="geometry">
            <Array as="points">
              <mxPoint x="1820" y="300" />
              <mxPoint x="1900" y="300" />
              <mxPoint x="1900" y="-130" />
              <mxPoint x="620" y="-130" />
            </Array>
          </mxGeometry>
        </mxCell>
        <mxCell id="4qu8erdwvBuGcGntGuA2-58" value="Начало новой зарядной сессии" style="edgeLabel;html=1;align=center;verticalAlign=middle;resizable=0;points=[];" parent="4qu8erdwvBuGcGntGuA2-56" vertex="1" connectable="0">
          <mxGeometry x="0.2023" y="-2" relative="1" as="geometry">
            <mxPoint x="-89" y="-18" as="offset" />
          </mxGeometry>
        </mxCell>
        <mxCell id="4qu8erdwvBuGcGntGuA2-54" value="Ожидание следующей З/С???" style="html=1;dashed=0;whiteSpace=wrap;" parent="1" vertex="1">
          <mxGeometry x="1770" y="230" width="100" height="50" as="geometry" />
        </mxCell>
        <mxCell id="iRILhYVC1YG7_bELRCJA-6" style="edgeStyle=orthogonalEdgeStyle;rounded=0;orthogonalLoop=1;jettySize=auto;html=1;entryX=0;entryY=0.5;entryDx=0;entryDy=0;" parent="1" source="iRILhYVC1YG7_bELRCJA-3" target="4qu8erdwvBuGcGntGuA2-50" edge="1">
          <mxGeometry relative="1" as="geometry" />
        </mxCell>
        <mxCell id="iRILhYVC1YG7_bELRCJA-7" value="Успех сравнения" style="edgeLabel;html=1;align=center;verticalAlign=middle;resizable=0;points=[];" parent="iRILhYVC1YG7_bELRCJA-6" vertex="1" connectable="0">
          <mxGeometry x="0.1889" y="-1" relative="1" as="geometry">
            <mxPoint x="-17" y="-16" as="offset" />
          </mxGeometry>
        </mxCell>
        <mxCell id="iRILhYVC1YG7_bELRCJA-3" value="Сравнить ключи" style="html=1;dashed=0;whiteSpace=wrap;" parent="1" vertex="1">
          <mxGeometry x="1490" y="100" width="100" height="50" as="geometry" />
        </mxCell>
      </root>
    </mxGraphModel>
  </diagram>
  <diagram id="TEepZzill7QBWqacfnus" name="Страница 2">
    <mxGraphModel dx="1834" dy="764" grid="0" gridSize="10" guides="1" tooltips="1" connect="1" arrows="1" fold="1" page="0" pageScale="1" pageWidth="827" pageHeight="1169" math="0" shadow="0">
      <root>
        <mxCell id="0" />
        <mxCell id="1" parent="0" />
        <mxCell id="iAwkUhdHgxvNzcTFvBfn-8" style="edgeStyle=orthogonalEdgeStyle;rounded=0;orthogonalLoop=1;jettySize=auto;html=1;" parent="1" source="iAwkUhdHgxvNzcTFvBfn-1" edge="1">
          <mxGeometry relative="1" as="geometry">
            <mxPoint x="480" y="300" as="targetPoint" />
            <Array as="points">
              <mxPoint x="480" y="300" />
            </Array>
          </mxGeometry>
        </mxCell>
        <mxCell id="iAwkUhdHgxvNzcTFvBfn-9" value="Успех операции" style="edgeLabel;html=1;align=center;verticalAlign=middle;resizable=0;points=[];" parent="iAwkUhdHgxvNzcTFvBfn-8" vertex="1" connectable="0">
          <mxGeometry x="0.3091" y="1" relative="1" as="geometry">
            <mxPoint x="-12" y="-9" as="offset" />
          </mxGeometry>
        </mxCell>
        <mxCell id="iAwkUhdHgxvNzcTFvBfn-10" style="edgeStyle=orthogonalEdgeStyle;rounded=0;orthogonalLoop=1;jettySize=auto;html=1;exitX=1.008;exitY=0.33;exitDx=0;exitDy=0;exitPerimeter=0;" parent="1" source="iAwkUhdHgxvNzcTFvBfn-1" edge="1">
          <mxGeometry relative="1" as="geometry">
            <mxPoint x="480" y="323" as="targetPoint" />
          </mxGeometry>
        </mxCell>
        <mxCell id="iAwkUhdHgxvNzcTFvBfn-11" value="Сумма" style="edgeLabel;html=1;align=center;verticalAlign=middle;resizable=0;points=[];" parent="iAwkUhdHgxvNzcTFvBfn-10" vertex="1" connectable="0">
          <mxGeometry x="0.2364" relative="1" as="geometry">
            <mxPoint x="-18" y="-13" as="offset" />
          </mxGeometry>
        </mxCell>
        <mxCell id="iAwkUhdHgxvNzcTFvBfn-13" value="Чек в ОФД" style="edgeStyle=orthogonalEdgeStyle;rounded=0;orthogonalLoop=1;jettySize=auto;html=1;" parent="1" source="iAwkUhdHgxvNzcTFvBfn-1" edge="1">
          <mxGeometry x="0.0909" y="20" relative="1" as="geometry">
            <mxPoint x="480" y="370" as="targetPoint" />
            <Array as="points">
              <mxPoint x="400" y="370" />
              <mxPoint x="400" y="370" />
            </Array>
            <mxPoint as="offset" />
          </mxGeometry>
        </mxCell>
        <mxCell id="iAwkUhdHgxvNzcTFvBfn-1" value="Оплата заправочной сессии" style="rounded=0;whiteSpace=wrap;html=1;" parent="1" vertex="1">
          <mxGeometry x="250" y="290" width="120" height="100" as="geometry" />
        </mxCell>
        <mxCell id="iAwkUhdHgxvNzcTFvBfn-12" value="JSON" style="text;html=1;align=center;verticalAlign=middle;resizable=0;points=[];autosize=1;strokeColor=none;fillColor=none;" parent="1" vertex="1">
          <mxGeometry x="390" y="240" width="60" height="30" as="geometry" />
        </mxCell>
        <mxCell id="iAwkUhdHgxvNzcTFvBfn-15" value="" style="endArrow=classic;html=1;rounded=0;entryX=-0.008;entryY=0.18;entryDx=0;entryDy=0;entryPerimeter=0;" parent="1" target="iAwkUhdHgxvNzcTFvBfn-1" edge="1">
          <mxGeometry width="50" height="50" relative="1" as="geometry">
            <mxPoint x="100" y="308" as="sourcePoint" />
            <mxPoint x="150" y="300" as="targetPoint" />
          </mxGeometry>
        </mxCell>
        <mxCell id="iAwkUhdHgxvNzcTFvBfn-16" value="ID зарядной сессии" style="edgeLabel;html=1;align=center;verticalAlign=middle;resizable=0;points=[];" parent="iAwkUhdHgxvNzcTFvBfn-15" vertex="1" connectable="0">
          <mxGeometry x="-0.2485" y="3" relative="1" as="geometry">
            <mxPoint x="24" y="-5" as="offset" />
          </mxGeometry>
        </mxCell>
        <mxCell id="iAwkUhdHgxvNzcTFvBfn-17" value="" style="endArrow=classic;html=1;rounded=0;entryX=-0.008;entryY=0.4;entryDx=0;entryDy=0;entryPerimeter=0;" parent="1" target="iAwkUhdHgxvNzcTFvBfn-1" edge="1">
          <mxGeometry width="50" height="50" relative="1" as="geometry">
            <mxPoint x="100" y="330" as="sourcePoint" />
            <mxPoint x="440" y="370" as="targetPoint" />
          </mxGeometry>
        </mxCell>
        <mxCell id="iAwkUhdHgxvNzcTFvBfn-20" value="ID клиента" style="edgeLabel;html=1;align=center;verticalAlign=middle;resizable=0;points=[];" parent="iAwkUhdHgxvNzcTFvBfn-17" vertex="1" connectable="0">
          <mxGeometry x="-0.3156" y="-1" relative="1" as="geometry">
            <mxPoint x="19" y="-11" as="offset" />
          </mxGeometry>
        </mxCell>
        <mxCell id="iAwkUhdHgxvNzcTFvBfn-18" value="" style="endArrow=classic;html=1;rounded=0;entryX=0.442;entryY=0.01;entryDx=0;entryDy=0;entryPerimeter=0;" parent="1" target="iAwkUhdHgxvNzcTFvBfn-1" edge="1">
          <mxGeometry width="50" height="50" relative="1" as="geometry">
            <mxPoint x="303" y="210" as="sourcePoint" />
            <mxPoint x="440" y="370" as="targetPoint" />
          </mxGeometry>
        </mxCell>
        <mxCell id="iAwkUhdHgxvNzcTFvBfn-19" value="Алгоритм работы модуля" style="edgeLabel;html=1;align=center;verticalAlign=middle;resizable=0;points=[];" parent="iAwkUhdHgxvNzcTFvBfn-18" vertex="1" connectable="0">
          <mxGeometry x="-0.4568" relative="1" as="geometry">
            <mxPoint x="-73" y="23" as="offset" />
          </mxGeometry>
        </mxCell>
        <mxCell id="iAwkUhdHgxvNzcTFvBfn-22" value="" style="endArrow=classic;html=1;rounded=0;" parent="1" edge="1">
          <mxGeometry width="50" height="50" relative="1" as="geometry">
            <mxPoint x="100" y="350" as="sourcePoint" />
            <mxPoint x="250" y="350" as="targetPoint" />
          </mxGeometry>
        </mxCell>
        <mxCell id="iAwkUhdHgxvNzcTFvBfn-23" value="Затраченные кВт * ч" style="edgeLabel;html=1;align=center;verticalAlign=middle;resizable=0;points=[];" parent="iAwkUhdHgxvNzcTFvBfn-22" vertex="1" connectable="0">
          <mxGeometry x="0.3867" y="4" relative="1" as="geometry">
            <mxPoint x="-34" y="-6" as="offset" />
          </mxGeometry>
        </mxCell>
        <mxCell id="iAwkUhdHgxvNzcTFvBfn-24" value="Модуль агрегации, сверки и фискализации" style="endArrow=classic;html=1;rounded=0;entryX=0.5;entryY=1;entryDx=0;entryDy=0;" parent="1" target="iAwkUhdHgxvNzcTFvBfn-1" edge="1">
          <mxGeometry x="-0.1111" y="10" width="50" height="50" relative="1" as="geometry">
            <mxPoint x="310" y="480" as="sourcePoint" />
            <mxPoint x="350" y="430" as="targetPoint" />
            <mxPoint as="offset" />
          </mxGeometry>
        </mxCell>
        <mxCell id="YrAmNJFLzsb8cv1FUSQx-1" value="Инициализация зарядной сессии" style="rounded=1;whiteSpace=wrap;html=1;" parent="1" vertex="1">
          <mxGeometry x="85" y="606" width="120" height="60" as="geometry" />
        </mxCell>
        <mxCell id="YrAmNJFLzsb8cv1FUSQx-3" value="Зарядная сессия" style="rounded=1;whiteSpace=wrap;html=1;" parent="1" vertex="1">
          <mxGeometry x="312" y="606" width="120" height="60" as="geometry" />
        </mxCell>
        <mxCell id="YrAmNJFLzsb8cv1FUSQx-4" value="" style="endArrow=classic;html=1;rounded=0;entryX=-0.008;entryY=0.4;entryDx=0;entryDy=0;entryPerimeter=0;" parent="1" edge="1">
          <mxGeometry width="50" height="50" relative="1" as="geometry">
            <mxPoint x="-3" y="638" as="sourcePoint" />
            <mxPoint x="85" y="638" as="targetPoint" />
          </mxGeometry>
        </mxCell>
        <mxCell id="YrAmNJFLzsb8cv1FUSQx-5" value="ID клиента" style="edgeLabel;html=1;align=center;verticalAlign=middle;resizable=0;points=[];" parent="YrAmNJFLzsb8cv1FUSQx-4" vertex="1" connectable="0">
          <mxGeometry x="-0.3156" y="-1" relative="1" as="geometry">
            <mxPoint x="11" y="-11" as="offset" />
          </mxGeometry>
        </mxCell>
        <mxCell id="YrAmNJFLzsb8cv1FUSQx-6" value="" style="endArrow=classic;html=1;rounded=0;" parent="1" edge="1">
          <mxGeometry width="50" height="50" relative="1" as="geometry">
            <mxPoint x="205" y="637" as="sourcePoint" />
            <mxPoint x="310" y="637" as="targetPoint" />
          </mxGeometry>
        </mxCell>
        <mxCell id="YrAmNJFLzsb8cv1FUSQx-7" value="ID зарядной сессии" style="edgeLabel;html=1;align=center;verticalAlign=middle;resizable=0;points=[];" parent="YrAmNJFLzsb8cv1FUSQx-6" vertex="1" connectable="0">
          <mxGeometry x="-0.2485" y="3" relative="1" as="geometry">
            <mxPoint x="13" y="-9" as="offset" />
          </mxGeometry>
        </mxCell>
        <mxCell id="YrAmNJFLzsb8cv1FUSQx-8" value="Оплата" style="rounded=1;whiteSpace=wrap;html=1;" parent="1" vertex="1">
          <mxGeometry x="552.5" y="608" width="120" height="60" as="geometry" />
        </mxCell>
        <mxCell id="YrAmNJFLzsb8cv1FUSQx-9" value="" style="endArrow=classic;html=1;rounded=0;entryX=0.442;entryY=0.01;entryDx=0;entryDy=0;entryPerimeter=0;" parent="1" edge="1">
          <mxGeometry width="50" height="50" relative="1" as="geometry">
            <mxPoint x="612" y="525" as="sourcePoint" />
            <mxPoint x="612" y="606" as="targetPoint" />
          </mxGeometry>
        </mxCell>
        <mxCell id="YrAmNJFLzsb8cv1FUSQx-10" value="Алгоритм работы модуля" style="edgeLabel;html=1;align=center;verticalAlign=middle;resizable=0;points=[];" parent="YrAmNJFLzsb8cv1FUSQx-9" vertex="1" connectable="0">
          <mxGeometry x="-0.4568" relative="1" as="geometry">
            <mxPoint x="-73" y="23" as="offset" />
          </mxGeometry>
        </mxCell>
        <mxCell id="YrAmNJFLzsb8cv1FUSQx-11" value="Модуль агрегации, сверки и фискализации" style="endArrow=classic;html=1;rounded=0;entryX=0.5;entryY=1;entryDx=0;entryDy=0;" parent="1" edge="1">
          <mxGeometry x="-0.1111" y="10" width="50" height="50" relative="1" as="geometry">
            <mxPoint x="612" y="758" as="sourcePoint" />
            <mxPoint x="612" y="668" as="targetPoint" />
            <mxPoint as="offset" />
          </mxGeometry>
        </mxCell>
        <mxCell id="YrAmNJFLzsb8cv1FUSQx-14" value="" style="endArrow=classic;html=1;rounded=0;" parent="1" edge="1">
          <mxGeometry width="50" height="50" relative="1" as="geometry">
            <mxPoint x="435" y="635.5" as="sourcePoint" />
            <mxPoint x="554" y="636" as="targetPoint" />
          </mxGeometry>
        </mxCell>
        <mxCell id="YrAmNJFLzsb8cv1FUSQx-15" value="Затраченные кВт * ч" style="edgeLabel;html=1;align=center;verticalAlign=middle;resizable=0;points=[];" parent="YrAmNJFLzsb8cv1FUSQx-14" vertex="1" connectable="0">
          <mxGeometry x="0.3867" y="4" relative="1" as="geometry">
            <mxPoint x="-34" y="-6" as="offset" />
          </mxGeometry>
        </mxCell>
        <mxCell id="YrAmNJFLzsb8cv1FUSQx-16" style="edgeStyle=orthogonalEdgeStyle;rounded=0;orthogonalLoop=1;jettySize=auto;html=1;" parent="1" edge="1">
          <mxGeometry relative="1" as="geometry">
            <mxPoint x="785" y="628" as="targetPoint" />
            <Array as="points">
              <mxPoint x="785" y="628" />
            </Array>
            <mxPoint x="675" y="628" as="sourcePoint" />
          </mxGeometry>
        </mxCell>
        <mxCell id="YrAmNJFLzsb8cv1FUSQx-17" value="Успех операции" style="edgeLabel;html=1;align=center;verticalAlign=middle;resizable=0;points=[];" parent="YrAmNJFLzsb8cv1FUSQx-16" vertex="1" connectable="0">
          <mxGeometry x="0.3091" y="1" relative="1" as="geometry">
            <mxPoint x="-12" y="-9" as="offset" />
          </mxGeometry>
        </mxCell>
        <mxCell id="YrAmNJFLzsb8cv1FUSQx-18" value="Формирование чека" style="rounded=1;whiteSpace=wrap;html=1;" parent="1" vertex="1">
          <mxGeometry x="787" y="606" width="120" height="60" as="geometry" />
        </mxCell>
        <mxCell id="YrAmNJFLzsb8cv1FUSQx-19" style="edgeStyle=orthogonalEdgeStyle;rounded=0;orthogonalLoop=1;jettySize=auto;html=1;" parent="1" edge="1">
          <mxGeometry relative="1" as="geometry">
            <mxPoint x="1017" y="612" as="targetPoint" />
            <Array as="points">
              <mxPoint x="1017" y="612" />
            </Array>
            <mxPoint x="907" y="612" as="sourcePoint" />
          </mxGeometry>
        </mxCell>
        <mxCell id="YrAmNJFLzsb8cv1FUSQx-20" value="Успех операции" style="edgeLabel;html=1;align=center;verticalAlign=middle;resizable=0;points=[];" parent="YrAmNJFLzsb8cv1FUSQx-19" vertex="1" connectable="0">
          <mxGeometry x="0.3091" y="1" relative="1" as="geometry">
            <mxPoint x="-12" y="-9" as="offset" />
          </mxGeometry>
        </mxCell>
        <mxCell id="YrAmNJFLzsb8cv1FUSQx-21" style="edgeStyle=orthogonalEdgeStyle;rounded=0;orthogonalLoop=1;jettySize=auto;html=1;exitX=1.008;exitY=0.33;exitDx=0;exitDy=0;exitPerimeter=0;" parent="1" edge="1">
          <mxGeometry relative="1" as="geometry">
            <mxPoint x="1017" y="635" as="targetPoint" />
            <mxPoint x="908" y="635" as="sourcePoint" />
          </mxGeometry>
        </mxCell>
        <mxCell id="YrAmNJFLzsb8cv1FUSQx-22" value="Сумма" style="edgeLabel;html=1;align=center;verticalAlign=middle;resizable=0;points=[];" parent="YrAmNJFLzsb8cv1FUSQx-21" vertex="1" connectable="0">
          <mxGeometry x="0.2364" relative="1" as="geometry">
            <mxPoint x="-18" y="-13" as="offset" />
          </mxGeometry>
        </mxCell>
        <mxCell id="YrAmNJFLzsb8cv1FUSQx-23" value="Чек в ОФД" style="edgeStyle=orthogonalEdgeStyle;rounded=0;orthogonalLoop=1;jettySize=auto;html=1;" parent="1" edge="1">
          <mxGeometry x="0.0182" y="11" relative="1" as="geometry">
            <mxPoint x="1017" y="657.01" as="targetPoint" />
            <Array as="points">
              <mxPoint x="937" y="657.01" />
              <mxPoint x="937" y="657.01" />
            </Array>
            <mxPoint as="offset" />
            <mxPoint x="907" y="657.01" as="sourcePoint" />
          </mxGeometry>
        </mxCell>
      </root>
    </mxGraphModel>
  </diagram>
  <diagram id="0ciaDBKWzFs2u7Cp7sDL" name="Страница 3">
    <mxGraphModel dx="2261" dy="764" grid="1" gridSize="10" guides="1" tooltips="1" connect="1" arrows="1" fold="1" page="1" pageScale="1" pageWidth="827" pageHeight="1169" math="0" shadow="0">
      <root>
        <mxCell id="0" />
        <mxCell id="1" parent="0" />
        <mxCell id="OBuMjKkNUnTrjx8U7L6d-3" value="Оплата (цикл пока идет З/C" style="text;html=1;align=center;verticalAlign=middle;resizable=0;points=[];autosize=1;strokeColor=none;fillColor=none;" parent="1" vertex="1">
          <mxGeometry x="60" y="120" width="180" height="30" as="geometry" />
        </mxCell>
        <mxCell id="OBuMjKkNUnTrjx8U7L6d-4" value="Проверка долга" style="text;html=1;align=center;verticalAlign=middle;resizable=0;points=[];autosize=1;strokeColor=none;fillColor=none;" parent="1" vertex="1">
          <mxGeometry x="60" y="80" width="110" height="30" as="geometry" />
        </mxCell>
        <mxCell id="OBuMjKkNUnTrjx8U7L6d-5" value="Формирование чека (ОФД?) АТОЛ" style="text;html=1;align=center;verticalAlign=middle;resizable=0;points=[];autosize=1;strokeColor=none;fillColor=none;" parent="1" vertex="1">
          <mxGeometry x="60" y="150" width="210" height="30" as="geometry" />
        </mxCell>
        <mxCell id="vXNlsWtdnRVP68WATFwu-1" value="Что нужно для совершения оплаты&lt;br&gt;1. Сумма оплаты&lt;br&gt;2. Номер заказа&lt;br&gt;3. Описание заказа&lt;br&gt;4. Уникальный номер виртуального терминала&lt;br&gt;5.&amp;nbsp; Название ТСП&lt;br&gt;6. Номер ТСП (присваивается банком)&lt;br&gt;7. Почта клиента" style="text;html=1;align=center;verticalAlign=middle;resizable=0;points=[];autosize=1;strokeColor=none;fillColor=none;" parent="1" vertex="1">
          <mxGeometry x="-5" y="260" width="290" height="130" as="geometry" />
        </mxCell>
      </root>
    </mxGraphModel>
  </diagram>
  <diagram id="kfBKTAHC2QrJdQ3GY435" name="Страница 4">
    <mxGraphModel dx="1434" dy="764" grid="1" gridSize="10" guides="1" tooltips="1" connect="1" arrows="1" fold="1" page="1" pageScale="1" pageWidth="827" pageHeight="1169" math="0" shadow="0">
      <root>
        <mxCell id="0" />
        <mxCell id="1" parent="0" />
        <mxCell id="rFFG-xL-dFYxMLarRlFd-3" style="edgeStyle=orthogonalEdgeStyle;rounded=0;orthogonalLoop=1;jettySize=auto;html=1;" parent="1" target="rFFG-xL-dFYxMLarRlFd-2" edge="1">
          <mxGeometry relative="1" as="geometry">
            <mxPoint x="390" y="100" as="sourcePoint" />
          </mxGeometry>
        </mxCell>
        <mxCell id="rFFG-xL-dFYxMLarRlFd-5" style="edgeStyle=orthogonalEdgeStyle;rounded=0;orthogonalLoop=1;jettySize=auto;html=1;" parent="1" source="rFFG-xL-dFYxMLarRlFd-2" target="rFFG-xL-dFYxMLarRlFd-4" edge="1">
          <mxGeometry relative="1" as="geometry" />
        </mxCell>
        <mxCell id="rFFG-xL-dFYxMLarRlFd-2" value="Данные об операции:&lt;br&gt;Транзакция завершена?&lt;br&gt;Сумма" style="shape=parallelogram;perimeter=parallelogramPerimeter;whiteSpace=wrap;html=1;fixedSize=1;" parent="1" vertex="1">
          <mxGeometry x="295" y="140" width="190" height="60" as="geometry" />
        </mxCell>
        <mxCell id="rFFG-xL-dFYxMLarRlFd-9" style="edgeStyle=orthogonalEdgeStyle;rounded=0;orthogonalLoop=1;jettySize=auto;html=1;" parent="1" source="rFFG-xL-dFYxMLarRlFd-4" edge="1">
          <mxGeometry relative="1" as="geometry">
            <mxPoint x="390" y="340" as="targetPoint" />
          </mxGeometry>
        </mxCell>
        <mxCell id="rFFG-xL-dFYxMLarRlFd-4" value="Запрос в банк на генерацию платежной ссылки" style="rounded=0;whiteSpace=wrap;html=1;" parent="1" vertex="1">
          <mxGeometry x="330" y="240" width="120" height="60" as="geometry" />
        </mxCell>
        <mxCell id="rFFG-xL-dFYxMLarRlFd-11" style="edgeStyle=orthogonalEdgeStyle;rounded=0;orthogonalLoop=1;jettySize=auto;html=1;" parent="1" target="rFFG-xL-dFYxMLarRlFd-10" edge="1">
          <mxGeometry relative="1" as="geometry">
            <mxPoint x="390.01" y="400" as="sourcePoint" />
          </mxGeometry>
        </mxCell>
        <mxCell id="rFFG-xL-dFYxMLarRlFd-13" style="edgeStyle=orthogonalEdgeStyle;rounded=0;orthogonalLoop=1;jettySize=auto;html=1;" parent="1" source="rFFG-xL-dFYxMLarRlFd-10" target="rFFG-xL-dFYxMLarRlFd-12" edge="1">
          <mxGeometry relative="1" as="geometry" />
        </mxCell>
        <mxCell id="rFFG-xL-dFYxMLarRlFd-10" value="Получаем ответ от банка" style="shape=parallelogram;perimeter=parallelogramPerimeter;whiteSpace=wrap;html=1;fixedSize=1;" parent="1" vertex="1">
          <mxGeometry x="303.13" y="450" width="173.75" height="60" as="geometry" />
        </mxCell>
        <mxCell id="rFFG-xL-dFYxMLarRlFd-16" style="edgeStyle=orthogonalEdgeStyle;rounded=0;orthogonalLoop=1;jettySize=auto;html=1;" parent="1" source="rFFG-xL-dFYxMLarRlFd-12" target="rFFG-xL-dFYxMLarRlFd-15" edge="1">
          <mxGeometry relative="1" as="geometry" />
        </mxCell>
        <mxCell id="rFFG-xL-dFYxMLarRlFd-12" value="Генерируем хеш-код на основе платежных данных и сверяем его с кодом банка" style="rounded=0;whiteSpace=wrap;html=1;" parent="1" vertex="1">
          <mxGeometry x="300" y="550" width="180" height="80" as="geometry" />
        </mxCell>
        <mxCell id="rFFG-xL-dFYxMLarRlFd-14" value="Отдаем платежную ссылку пользователю" style="shape=document;whiteSpace=wrap;html=1;boundedLbl=1;" parent="1" vertex="1">
          <mxGeometry x="330" y="340" width="120" height="80" as="geometry" />
        </mxCell>
        <mxCell id="rFFG-xL-dFYxMLarRlFd-30" value="Да" style="edgeStyle=orthogonalEdgeStyle;rounded=0;orthogonalLoop=1;jettySize=auto;html=1;" parent="1" source="rFFG-xL-dFYxMLarRlFd-15" target="rFFG-xL-dFYxMLarRlFd-29" edge="1">
          <mxGeometry x="-0.2" y="10" relative="1" as="geometry">
            <Array as="points">
              <mxPoint x="390" y="800" />
              <mxPoint x="390" y="800" />
            </Array>
            <mxPoint as="offset" />
          </mxGeometry>
        </mxCell>
        <mxCell id="rFFG-xL-dFYxMLarRlFd-35" value="Нет" style="edgeStyle=orthogonalEdgeStyle;rounded=0;orthogonalLoop=1;jettySize=auto;html=1;entryX=0;entryY=0.5;entryDx=0;entryDy=0;" parent="1" source="rFFG-xL-dFYxMLarRlFd-15" target="rFFG-xL-dFYxMLarRlFd-34" edge="1">
          <mxGeometry y="10" relative="1" as="geometry">
            <mxPoint as="offset" />
          </mxGeometry>
        </mxCell>
        <mxCell id="rFFG-xL-dFYxMLarRlFd-15" value="Вычисленный хеш-код &lt;br&gt;совпадает с кодом банка?" style="rhombus;whiteSpace=wrap;html=1;" parent="1" vertex="1">
          <mxGeometry x="290" y="670" width="200" height="100" as="geometry" />
        </mxCell>
        <mxCell id="rFFG-xL-dFYxMLarRlFd-42" style="edgeStyle=orthogonalEdgeStyle;rounded=0;orthogonalLoop=1;jettySize=auto;html=1;entryX=0;entryY=0.5;entryDx=0;entryDy=0;" parent="1" source="rFFG-xL-dFYxMLarRlFd-20" target="rFFG-xL-dFYxMLarRlFd-41" edge="1">
          <mxGeometry relative="1" as="geometry" />
        </mxCell>
        <mxCell id="rFFG-xL-dFYxMLarRlFd-20" value="Завершение зарядной сессии" style="rounded=0;whiteSpace=wrap;html=1;" parent="1" vertex="1">
          <mxGeometry x="690" y="690" width="120" height="60" as="geometry" />
        </mxCell>
        <mxCell id="rFFG-xL-dFYxMLarRlFd-32" style="edgeStyle=orthogonalEdgeStyle;rounded=0;orthogonalLoop=1;jettySize=auto;html=1;" parent="1" source="rFFG-xL-dFYxMLarRlFd-29" target="rFFG-xL-dFYxMLarRlFd-31" edge="1">
          <mxGeometry relative="1" as="geometry" />
        </mxCell>
        <mxCell id="rFFG-xL-dFYxMLarRlFd-29" value="JSON успешной операции" style="shape=document;whiteSpace=wrap;html=1;boundedLbl=1;" parent="1" vertex="1">
          <mxGeometry x="330.01" y="820" width="120" height="80" as="geometry" />
        </mxCell>
        <mxCell id="rFFG-xL-dFYxMLarRlFd-33" style="edgeStyle=orthogonalEdgeStyle;rounded=0;orthogonalLoop=1;jettySize=auto;html=1;" parent="1" source="rFFG-xL-dFYxMLarRlFd-31" edge="1">
          <mxGeometry relative="1" as="geometry">
            <mxPoint x="390" y="107" as="targetPoint" />
            <Array as="points">
              <mxPoint x="180" y="980" />
              <mxPoint x="180" y="107" />
            </Array>
          </mxGeometry>
        </mxCell>
        <mxCell id="rFFG-xL-dFYxMLarRlFd-39" value="Да" style="edgeLabel;html=1;align=center;verticalAlign=middle;resizable=0;points=[];" parent="rFFG-xL-dFYxMLarRlFd-33" vertex="1" connectable="0">
          <mxGeometry x="-0.9219" relative="1" as="geometry">
            <mxPoint y="-10" as="offset" />
          </mxGeometry>
        </mxCell>
        <mxCell id="rFFG-xL-dFYxMLarRlFd-37" style="edgeStyle=orthogonalEdgeStyle;rounded=0;orthogonalLoop=1;jettySize=auto;html=1;" parent="1" source="rFFG-xL-dFYxMLarRlFd-31" edge="1">
          <mxGeometry relative="1" as="geometry">
            <mxPoint x="670" y="720" as="targetPoint" />
          </mxGeometry>
        </mxCell>
        <mxCell id="rFFG-xL-dFYxMLarRlFd-38" value="Нет" style="edgeLabel;html=1;align=center;verticalAlign=middle;resizable=0;points=[];" parent="rFFG-xL-dFYxMLarRlFd-37" vertex="1" connectable="0">
          <mxGeometry x="-0.7822" y="1" relative="1" as="geometry">
            <mxPoint x="1" y="-9" as="offset" />
          </mxGeometry>
        </mxCell>
        <mxCell id="rFFG-xL-dFYxMLarRlFd-31" value="Сессия продолжается?" style="rhombus;whiteSpace=wrap;html=1;" parent="1" vertex="1">
          <mxGeometry x="300" y="940" width="180" height="80" as="geometry" />
        </mxCell>
        <mxCell id="rFFG-xL-dFYxMLarRlFd-36" style="edgeStyle=orthogonalEdgeStyle;rounded=0;orthogonalLoop=1;jettySize=auto;html=1;entryX=0;entryY=0.5;entryDx=0;entryDy=0;" parent="1" source="rFFG-xL-dFYxMLarRlFd-34" target="rFFG-xL-dFYxMLarRlFd-20" edge="1">
          <mxGeometry relative="1" as="geometry" />
        </mxCell>
        <mxCell id="rFFG-xL-dFYxMLarRlFd-34" value="JSON неуспешной операции" style="shape=document;whiteSpace=wrap;html=1;boundedLbl=1;" parent="1" vertex="1">
          <mxGeometry x="530" y="680" width="120" height="80" as="geometry" />
        </mxCell>
        <mxCell id="rFFG-xL-dFYxMLarRlFd-45" style="edgeStyle=orthogonalEdgeStyle;rounded=0;orthogonalLoop=1;jettySize=auto;html=1;" parent="1" source="rFFG-xL-dFYxMLarRlFd-41" target="rFFG-xL-dFYxMLarRlFd-44" edge="1">
          <mxGeometry relative="1" as="geometry" />
        </mxCell>
        <mxCell id="rFFG-xL-dFYxMLarRlFd-41" value="Проверка суммы и печать чека" style="rounded=0;whiteSpace=wrap;html=1;" parent="1" vertex="1">
          <mxGeometry x="840" y="690" width="120" height="60" as="geometry" />
        </mxCell>
        <mxCell id="rFFG-xL-dFYxMLarRlFd-43" value="Начало зарядной сессии" style="ellipse;whiteSpace=wrap;html=1;" parent="1" vertex="1">
          <mxGeometry x="330" y="20" width="120" height="80" as="geometry" />
        </mxCell>
        <mxCell id="rFFG-xL-dFYxMLarRlFd-44" value="Конец зарядной сессии" style="ellipse;whiteSpace=wrap;html=1;" parent="1" vertex="1">
          <mxGeometry x="1000" y="680" width="120" height="80" as="geometry" />
        </mxCell>
      </root>
    </mxGraphModel>
  </diagram>
  <diagram id="6pySZxi7DjV6aoviENcs" name="Страница 5">
    <mxGraphModel dx="1793" dy="955" grid="0" gridSize="10" guides="1" tooltips="1" connect="1" arrows="1" fold="1" page="0" pageScale="1" pageWidth="827" pageHeight="1169" math="0" shadow="0">
      <root>
        <mxCell id="0" />
        <mxCell id="1" parent="0" />
        <mxCell id="Y-z-VgW9YYmE0pGx5y02-2" style="edgeStyle=orthogonalEdgeStyle;rounded=0;orthogonalLoop=1;jettySize=auto;html=1;" edge="1" parent="1" source="ZL70O8hCht_-1P172FYI-1" target="Y-z-VgW9YYmE0pGx5y02-1">
          <mxGeometry relative="1" as="geometry" />
        </mxCell>
        <mxCell id="ZL70O8hCht_-1P172FYI-1" value="Запрос на рекуррентный платеж" style="ellipse;whiteSpace=wrap;html=1;" vertex="1" parent="1">
          <mxGeometry x="354" y="98" width="120" height="80" as="geometry" />
        </mxCell>
        <mxCell id="DachJuCTSu4rLQ1OWQyc-2" style="edgeStyle=orthogonalEdgeStyle;rounded=0;orthogonalLoop=1;jettySize=auto;html=1;" edge="1" parent="1" source="Y-z-VgW9YYmE0pGx5y02-1" target="DachJuCTSu4rLQ1OWQyc-1">
          <mxGeometry relative="1" as="geometry" />
        </mxCell>
        <mxCell id="Y-z-VgW9YYmE0pGx5y02-1" value="ID зарядной сессии&lt;br&gt;Платежные данные" style="shape=parallelogram;perimeter=parallelogramPerimeter;whiteSpace=wrap;html=1;fixedSize=1;" vertex="1" parent="1">
          <mxGeometry x="331" y="199" width="166" height="60" as="geometry" />
        </mxCell>
        <mxCell id="DachJuCTSu4rLQ1OWQyc-3" value="Нет" style="edgeStyle=orthogonalEdgeStyle;rounded=0;orthogonalLoop=1;jettySize=auto;html=1;" edge="1" parent="1" source="DachJuCTSu4rLQ1OWQyc-1">
          <mxGeometry relative="1" as="geometry">
            <mxPoint x="580" y="320" as="targetPoint" />
            <Array as="points">
              <mxPoint x="520" y="320" />
              <mxPoint x="520" y="320" />
            </Array>
          </mxGeometry>
        </mxCell>
        <mxCell id="DachJuCTSu4rLQ1OWQyc-6" style="edgeStyle=orthogonalEdgeStyle;rounded=0;orthogonalLoop=1;jettySize=auto;html=1;" edge="1" parent="1" source="DachJuCTSu4rLQ1OWQyc-1" target="DachJuCTSu4rLQ1OWQyc-5">
          <mxGeometry relative="1" as="geometry" />
        </mxCell>
        <mxCell id="DachJuCTSu4rLQ1OWQyc-1" value="Данные корректны?" style="rhombus;whiteSpace=wrap;html=1;" vertex="1" parent="1">
          <mxGeometry x="359" y="280" width="110" height="80" as="geometry" />
        </mxCell>
        <mxCell id="3R5LspgUMWvShc_oHPhs-1" style="edgeStyle=orthogonalEdgeStyle;rounded=0;orthogonalLoop=1;jettySize=auto;html=1;entryX=1;entryY=0.5;entryDx=0;entryDy=0;" edge="1" parent="1" source="DachJuCTSu4rLQ1OWQyc-4" target="-sJfBxCXV1l0Ds5f1HwO-14">
          <mxGeometry relative="1" as="geometry">
            <mxPoint x="768" y="938.3333333333333" as="targetPoint" />
            <Array as="points">
              <mxPoint x="731" y="320" />
              <mxPoint x="731" y="924" />
            </Array>
          </mxGeometry>
        </mxCell>
        <mxCell id="DachJuCTSu4rLQ1OWQyc-4" value="404 Bad request" style="shape=document;whiteSpace=wrap;html=1;boundedLbl=1;" vertex="1" parent="1">
          <mxGeometry x="580" y="280" width="120" height="80" as="geometry" />
        </mxCell>
        <mxCell id="DachJuCTSu4rLQ1OWQyc-8" style="edgeStyle=orthogonalEdgeStyle;rounded=0;orthogonalLoop=1;jettySize=auto;html=1;entryX=0;entryY=0.5;entryDx=0;entryDy=0;" edge="1" parent="1" source="DachJuCTSu4rLQ1OWQyc-5" target="DachJuCTSu4rLQ1OWQyc-7">
          <mxGeometry relative="1" as="geometry" />
        </mxCell>
        <mxCell id="DachJuCTSu4rLQ1OWQyc-9" value="Нет" style="edgeLabel;html=1;align=center;verticalAlign=middle;resizable=0;points=[];" vertex="1" connectable="0" parent="DachJuCTSu4rLQ1OWQyc-8">
          <mxGeometry x="-0.5952" y="1" relative="1" as="geometry">
            <mxPoint x="17" y="1" as="offset" />
          </mxGeometry>
        </mxCell>
        <mxCell id="DachJuCTSu4rLQ1OWQyc-11" style="edgeStyle=orthogonalEdgeStyle;rounded=0;orthogonalLoop=1;jettySize=auto;html=1;" edge="1" parent="1" source="DachJuCTSu4rLQ1OWQyc-5" target="DachJuCTSu4rLQ1OWQyc-10">
          <mxGeometry relative="1" as="geometry" />
        </mxCell>
        <mxCell id="DachJuCTSu4rLQ1OWQyc-12" value="Да" style="edgeLabel;html=1;align=center;verticalAlign=middle;resizable=0;points=[];" vertex="1" connectable="0" parent="DachJuCTSu4rLQ1OWQyc-11">
          <mxGeometry x="0.6909" y="2" relative="1" as="geometry">
            <mxPoint x="-2" y="-53" as="offset" />
          </mxGeometry>
        </mxCell>
        <mxCell id="DachJuCTSu4rLQ1OWQyc-5" value="Был ли запрос таким &lt;br&gt;же ID зарядной &lt;br&gt;сессии ранее?" style="rhombus;whiteSpace=wrap;html=1;" vertex="1" parent="1">
          <mxGeometry x="323.5" y="390" width="181" height="120" as="geometry" />
        </mxCell>
        <mxCell id="DachJuCTSu4rLQ1OWQyc-13" style="edgeStyle=orthogonalEdgeStyle;rounded=0;orthogonalLoop=1;jettySize=auto;html=1;" edge="1" parent="1" source="DachJuCTSu4rLQ1OWQyc-7">
          <mxGeometry relative="1" as="geometry">
            <mxPoint x="415" y="520" as="targetPoint" />
            <Array as="points">
              <mxPoint x="600" y="520" />
            </Array>
          </mxGeometry>
        </mxCell>
        <mxCell id="DachJuCTSu4rLQ1OWQyc-7" value="Инициализация новой зарядной сессии" style="rounded=0;whiteSpace=wrap;html=1;" vertex="1" parent="1">
          <mxGeometry x="575" y="420" width="120" height="60" as="geometry" />
        </mxCell>
        <mxCell id="-sJfBxCXV1l0Ds5f1HwO-2" style="edgeStyle=orthogonalEdgeStyle;rounded=0;orthogonalLoop=1;jettySize=auto;html=1;entryX=0.5;entryY=0;entryDx=0;entryDy=0;" edge="1" parent="1" source="DachJuCTSu4rLQ1OWQyc-10" target="-sJfBxCXV1l0Ds5f1HwO-1">
          <mxGeometry relative="1" as="geometry" />
        </mxCell>
        <mxCell id="DachJuCTSu4rLQ1OWQyc-10" value="Генерация электронной подписи на основе платежных данных" style="rounded=0;whiteSpace=wrap;html=1;" vertex="1" parent="1">
          <mxGeometry x="354" y="539" width="120" height="60" as="geometry" />
        </mxCell>
        <mxCell id="-sJfBxCXV1l0Ds5f1HwO-4" style="edgeStyle=orthogonalEdgeStyle;rounded=0;orthogonalLoop=1;jettySize=auto;html=1;entryX=0.5;entryY=0;entryDx=0;entryDy=0;" edge="1" parent="1" source="-sJfBxCXV1l0Ds5f1HwO-1" target="-sJfBxCXV1l0Ds5f1HwO-3">
          <mxGeometry relative="1" as="geometry" />
        </mxCell>
        <mxCell id="-sJfBxCXV1l0Ds5f1HwO-1" value="Отправка платежных данных с подписью в банк" style="rounded=0;whiteSpace=wrap;html=1;" vertex="1" parent="1">
          <mxGeometry x="354" y="619" width="120" height="60" as="geometry" />
        </mxCell>
        <mxCell id="-sJfBxCXV1l0Ds5f1HwO-19" style="edgeStyle=orthogonalEdgeStyle;rounded=0;orthogonalLoop=1;jettySize=auto;html=1;entryX=0.5;entryY=0;entryDx=0;entryDy=0;" edge="1" parent="1" source="-sJfBxCXV1l0Ds5f1HwO-3" target="-sJfBxCXV1l0Ds5f1HwO-7">
          <mxGeometry relative="1" as="geometry" />
        </mxCell>
        <mxCell id="-sJfBxCXV1l0Ds5f1HwO-3" value="Ответ от банка об успехе операции" style="shape=parallelogram;perimeter=parallelogramPerimeter;whiteSpace=wrap;html=1;fixedSize=1;" vertex="1" parent="1">
          <mxGeometry x="347" y="697" width="134" height="60" as="geometry" />
        </mxCell>
        <mxCell id="-sJfBxCXV1l0Ds5f1HwO-20" style="edgeStyle=orthogonalEdgeStyle;rounded=0;orthogonalLoop=1;jettySize=auto;html=1;" edge="1" parent="1" source="-sJfBxCXV1l0Ds5f1HwO-7" target="-sJfBxCXV1l0Ds5f1HwO-8">
          <mxGeometry relative="1" as="geometry" />
        </mxCell>
        <mxCell id="-sJfBxCXV1l0Ds5f1HwO-7" value="JSON о результате операции" style="shape=document;whiteSpace=wrap;html=1;boundedLbl=1;" vertex="1" parent="1">
          <mxGeometry x="354" y="784" width="120" height="80" as="geometry" />
        </mxCell>
        <mxCell id="-sJfBxCXV1l0Ds5f1HwO-15" value="Нет" style="edgeStyle=orthogonalEdgeStyle;rounded=0;orthogonalLoop=1;jettySize=auto;html=1;" edge="1" parent="1" source="-sJfBxCXV1l0Ds5f1HwO-8" target="-sJfBxCXV1l0Ds5f1HwO-14">
          <mxGeometry relative="1" as="geometry" />
        </mxCell>
        <mxCell id="-sJfBxCXV1l0Ds5f1HwO-21" value="Да" style="edgeStyle=orthogonalEdgeStyle;rounded=0;orthogonalLoop=1;jettySize=auto;html=1;entryX=0.5;entryY=0;entryDx=0;entryDy=0;" edge="1" parent="1" source="-sJfBxCXV1l0Ds5f1HwO-8" target="-sJfBxCXV1l0Ds5f1HwO-12">
          <mxGeometry relative="1" as="geometry" />
        </mxCell>
        <mxCell id="-sJfBxCXV1l0Ds5f1HwO-8" value="Зарядная сессия завершается?" style="rhombus;whiteSpace=wrap;html=1;" vertex="1" parent="1">
          <mxGeometry x="351" y="884" width="126" height="80" as="geometry" />
        </mxCell>
        <mxCell id="-sJfBxCXV1l0Ds5f1HwO-12" value="Запрос на печать чека на сумму успешно списанных средств" style="rounded=0;whiteSpace=wrap;html=1;" vertex="1" parent="1">
          <mxGeometry x="354" y="992" width="120" height="60" as="geometry" />
        </mxCell>
        <mxCell id="-sJfBxCXV1l0Ds5f1HwO-14" value="Завершение обработки рекуррентного платежа" style="ellipse;whiteSpace=wrap;html=1;" vertex="1" parent="1">
          <mxGeometry x="551" y="884" width="120" height="80" as="geometry" />
        </mxCell>
        <mxCell id="-sJfBxCXV1l0Ds5f1HwO-18" style="edgeStyle=orthogonalEdgeStyle;rounded=0;orthogonalLoop=1;jettySize=auto;html=1;entryX=0.5;entryY=1;entryDx=0;entryDy=0;" edge="1" parent="1" source="-sJfBxCXV1l0Ds5f1HwO-17" target="-sJfBxCXV1l0Ds5f1HwO-14">
          <mxGeometry relative="1" as="geometry" />
        </mxCell>
        <mxCell id="-sJfBxCXV1l0Ds5f1HwO-23" value="" style="edgeStyle=orthogonalEdgeStyle;rounded=0;orthogonalLoop=1;jettySize=auto;html=1;" edge="1" parent="1" source="-sJfBxCXV1l0Ds5f1HwO-12" target="-sJfBxCXV1l0Ds5f1HwO-17">
          <mxGeometry relative="1" as="geometry">
            <mxPoint x="414" y="1260" as="targetPoint" />
            <mxPoint x="414" y="1052" as="sourcePoint" />
          </mxGeometry>
        </mxCell>
        <mxCell id="-sJfBxCXV1l0Ds5f1HwO-17" value="JSON о результате сессии" style="shape=document;whiteSpace=wrap;html=1;boundedLbl=1;" vertex="1" parent="1">
          <mxGeometry x="551" y="982" width="120" height="80" as="geometry" />
        </mxCell>
      </root>
    </mxGraphModel>
  </diagram>
</mxfile>
